<svg version="1.0" xmlns="http://www.w3.org/2000/svg"
 width="128.000000pt" height="128.000000pt" viewBox="0 0 128.000000 128.000000"
 preserveAspectRatio="xMidYMid meet">
<metadata>
Created by potrace 1.16, written by Peter Selinger 2001-2019
</metadata>
<g transform="translate(0.000000,128.000000) scale(0.100000,-0.100000)"
fill="#fff" stroke="none">
<path d="M524 1166 c-206 -47 -366 -210 -410 -415 -17 -80 -17 -129 -3 -207
31 -170 152 -325 308 -395 57 -26 162 -49 221 -49 90 0 216 38 292 87 l28 18
55 -55 55 -54 0 142 0 142 -135 0 c-74 0 -135 -4 -135 -8 0 -4 16 -24 36 -43
l35 -34 -21 -17 c-34 -27 -146 -58 -210 -58 -123 0 -258 67 -332 165 -204 268
-29 649 309 673 216 15 414 -152 440 -370 l6 -48 58 0 c68 0 68 0 45 110 -53
242 -252 412 -499 425 -50 3 -106 -1 -143 -9z"/>
<path d="M580 770 l0 -190 140 0 140 0 0 60 0 60 -80 0 -80 0 0 130 0 130 -60
0 -60 0 0 -190z"/>
</g>
</svg>
